<svg xmlns="http://www.w3.org/2000/svg" viewBox="0 0 1420 540" width="1420" height="540" font-family="-apple-system, BlinkMacSystemFont, 'Segoe UI', Helvetica, Arial, sans-serif" font-size="12" role="img" aria-label="Pattern 2 · Goal monitoring — coverage decides whether to research again">
<defs>
  <marker id="arrow" viewBox="0 0 10 10" refX="9" refY="5" markerWidth="8" markerHeight="8" orient="auto-start-reverse"><path d="M0,0 L10,5 L0,10 z" fill="#24292f"/></marker>
  <marker id="arrow-muted" viewBox="0 0 10 10" refX="9" refY="5" markerWidth="8" markerHeight="8" orient="auto-start-reverse"><path d="M0,0 L10,5 L0,10 z" fill="#8c959f"/></marker>
  <marker id="arrow-red" viewBox="0 0 10 10" refX="9" refY="5" markerWidth="8" markerHeight="8" orient="auto-start-reverse"><path d="M0,0 L10,5 L0,10 z" fill="#cf222e"/></marker>
</defs>
<rect width="1420" height="540" fill="#ffffff"/>
<text x="24" y="34" font-size="20" font-weight="600" fill="#24292f">Pattern 2 · Goal monitoring — coverage decides whether to research again</text>
<text x="24" y="54" font-size="12" fill="#57606a">Every planned requirement is scored against its own criterion. Unmet ones get exactly one widened round, and what stays unmet is reported.</text>
<path d="M230,190 L288,190" fill="none" stroke="#24292f" stroke-width="1.5"  marker-end="url(#arrow)"/>
<path d="M510,190 L544,190 L544,140 L578,140" fill="none" stroke="#24292f" stroke-width="1.5"  marker-end="url(#arrow)"/>
<rect x="342.3" y="119" width="115.4" height="18" rx="3" fill="#ffffff" fill-opacity="0.92"/>
<text x="400" y="131" text-anchor="middle" font-size="10.5" fill="#24292f">≥ minimum_authors</text>
<path d="M510,190 L544,190 L544,239 L578,239" fill="none" stroke="#24292f" stroke-width="1.5"  marker-end="url(#arrow)"/>
<path d="M800,239 L829,239 L829,233 L858,233" fill="none" stroke="#24292f" stroke-width="1.5"  marker-end="url(#arrow)"/>
<rect x="784" y="287" width="72" height="18" rx="3" fill="#ffffff" fill-opacity="0.92"/>
<text x="820" y="299" text-anchor="middle" font-size="10.5" fill="#24292f">only these</text>
<path d="M965,261 L965,318" fill="none" stroke="#24292f" stroke-width="1.5"  marker-end="url(#arrow)"/>
<rect x="939.2" y="287" width="121.60000000000001" height="18" rx="3" fill="#ffffff" fill-opacity="0.92"/>
<text x="1000" y="299" text-anchor="middle" font-size="10.5" fill="#24292f">widened vocabulary</text>
<path d="M1070,348 L1148,348" fill="none" stroke="#cf222e" stroke-width="1.5"  marker-end="url(#arrow-red)"/>
<rect x="1064.7" y="393" width="90.60000000000001" height="18" rx="3" fill="#ffffff" fill-opacity="0.92"/>
<text x="1110" y="405" text-anchor="middle" font-size="10.5" fill="#cf222e">nothing found</text>
<path d="M860,348 L820,348 L820,430 L400,430 L400,222" fill="none" stroke="#24292f" stroke-width="1.5"  marker-end="url(#arrow)"/>
<rect x="462.4" y="421" width="295.2" height="18" rx="3" fill="#ffffff" fill-opacity="0.92"/>
<text x="610" y="433" text-anchor="middle" font-size="10.5" fill="#24292f">round 2 · bounded by SOURCECUT_RESEARCH_ROUNDS</text>
<rect x="40" y="160" width="190" height="60" rx="4" fill="#ffffff" stroke="#57606a" stroke-width="1.5" stroke-dasharray="5 3"/>
<text x="135" y="188.0" text-anchor="middle" font-size="12.0" font-weight="600" fill="#24292f">retrieved evidence</text>
<text x="135" y="202.0" text-anchor="middle" font-size="10.0" fill="#57606a" font-family="ui-monospace, SFMono-Regular, Menlo, monospace">plan window</text>
<rect x="290" y="160" width="220" height="60" rx="6" fill="#f6f8fa" stroke="#57606a" stroke-width="1.5" />
<text x="400" y="188.0" text-anchor="middle" font-size="12.0" font-weight="600" fill="#24292f">evaluate_coverage</text>
<text x="400" y="202.0" text-anchor="middle" font-size="10.0" fill="#57606a" font-family="ui-monospace, SFMono-Regular, Menlo, monospace">per requirement</text>
<rect x="580" y="116" width="220" height="48" rx="24" fill="#e6f4ea" stroke="#1a7f37" stroke-width="1.5" />
<text x="690" y="144.0" text-anchor="middle" font-size="12.0" font-weight="600" fill="#24292f">met</text>
<rect x="580" y="215" width="220" height="48" rx="24" fill="#ffffff" stroke="#57606a" stroke-width="1.5" />
<text x="690" y="243.0" text-anchor="middle" font-size="12.0" font-weight="600" fill="#24292f">unmet · single_source</text>
<rect x="860" y="205" width="210" height="56" rx="6" fill="#eef2ff" stroke="#4c5fd5" stroke-width="1.5" />
<text x="965" y="231.0" text-anchor="middle" font-size="12.0" font-weight="600" fill="#24292f">expand_gaps</text>
<text x="965" y="245.0" text-anchor="middle" font-size="10.0" fill="#57606a" font-family="ui-monospace, SFMono-Regular, Menlo, monospace">period spellings only</text>
<rect x="860" y="320" width="210" height="56" rx="6" fill="#f6f8fa" stroke="#57606a" stroke-width="1.5" />
<text x="965" y="346.0" text-anchor="middle" font-size="12.0" font-weight="600" fill="#24292f">gap_passage_query</text>
<text x="965" y="360.0" text-anchor="middle" font-size="10.0" fill="#57606a" font-family="ui-monospace, SFMono-Regular, Menlo, monospace">same window, wider terms</text>
<rect x="1150" y="320" width="220" height="56" rx="28" fill="#fff0f0" stroke="#cf222e" stroke-width="1.5" />
<text x="1260" y="346.0" text-anchor="middle" font-size="12.0" font-weight="600" fill="#24292f">reported unmet</text>
<text x="1260" y="360.0" text-anchor="middle" font-size="10.0" fill="#57606a" font-family="ui-monospace, SFMono-Regular, Menlo, monospace">shown, not hidden</text>
<rect x="24" y="505" width="18" height="12" rx="3" fill="#f6f8fa" stroke="#57606a" />
<text x="48" y="515" font-size="11" fill="#57606a">deterministic code</text>
<rect x="191.2" y="505" width="18" height="12" rx="3" fill="#eef2ff" stroke="#4c5fd5" />
<text x="215.2" y="515" font-size="11" fill="#57606a">LLM node</text>
<rect x="294.4" y="505" width="18" height="12" rx="3" fill="#ffffff" stroke="#57606a" stroke-dasharray="5 3"/>
<text x="318.4" y="515" font-size="11" fill="#57606a">store / queue</text>
<rect x="429.59999999999997" y="505" width="18" height="12" rx="3" fill="#ffffff" stroke="#57606a" />
<text x="453.59999999999997" y="515" font-size="11" fill="#57606a">state</text>
<rect x="513.5999999999999" y="505" width="18" height="12" rx="3" fill="#e6f4ea" stroke="#1a7f37" />
<text x="537.5999999999999" y="515" font-size="11" fill="#57606a">terminal / outcome</text>
<rect x="680.8" y="505" width="18" height="12" rx="3" fill="#fff0f0" stroke="#cf222e" />
<text x="704.8" y="515" font-size="11" fill="#57606a">blocked / failed</text>
<text x="1396" y="476" text-anchor="end" font-size="10.5" fill="#57606a">A round widens vocabulary only. It never widens the window, never lowers a criterion, and never runs a third time.</text>
<text x="1396" y="490" text-anchor="end" font-size="10.5" fill="#57606a">Gap evidence keeps passage-term: citation ids, so it stays distinguishable from validated observations.</text>
</svg>